<svg xmlns="http://www.w3.org/2000/svg" width="500" height="200" fill="none" viewBox="0 0 500 200"><path fill="url(#a)" d="M96.688 25C81.453 39.453 73.64 56.25 73.64 75.781c0 16.797 7.812 30.078 23.046 39.844 15.235-9.766 23.047-23.047 23.047-39.844 0-19.531-7.812-36.328-23.046-50.781"/><path fill="url(#b)" d="M70.906 49.61C54.5 61.718 45.125 78.905 45.125 97.265q0 22.265 22.266 35.156 21.68-11.72 29.296-36.328c-12.5-8.203-21.093-23.438-25.78-46.485"/><path fill="url(#c)" d="M122.469 49.61c-4.688 23.046-13.282 38.28-25.781 46.484q7.617 24.609 29.296 36.328 22.266-12.891 22.266-35.156c0-18.36-9.375-35.547-25.781-47.657"/><path fill="url(#d)" d="M42.781 78.906C25.594 92.97 17 107.812 17 123.047c0 12.5 6.64 22.265 19.531 28.906q29.298-7.617 45.703-32.812C65.828 113.281 52.547 100 42.781 78.906"/><path fill="url(#e)" d="M150.594 78.906c-9.766 21.094-23.047 34.375-39.453 40.235q16.406 25.195 45.703 32.812c12.89-6.641 19.531-16.406 19.531-28.906 0-15.235-8.594-30.078-25.781-44.14"/><path fill="url(#f)" d="M55.672 151.172c9.375-7.422 23.047-11.328 41.016-11.328s31.64 3.906 41.015 11.328q-12.89 24.609-41.015 24.609c-28.126 0-32.422-8.203-41.016-24.609"/><path fill="#fff" d="M230 150.4V79h16.2v58.9h26.5v12.5zM330.906 123q0 6.8-1.8 12.1-1.7 5.3-5 9-3.3 3.6-8.1 5.5-4.7 1.8-10.6 1.8-5.499 0-10.2-1.8-4.7-1.9-8.1-5.5-3.3-3.7-5.2-9-1.8-5.3-1.8-12.1 0-9.1 3.1-15.3 3.1-6.3 8.8-9.6t13.7-3.3q7.4 0 13 3.3 5.7 3.3 8.9 9.6 3.3 6.2 3.3 15.3m-34.5 0q0 5.4.9 9.1 1 3.6 3 5.5 2.1 1.8 5.3 1.8 3.3 0 5.2-1.8 2-1.9 2.9-5.5.9-3.7.9-9.1t-.9-9-3-5.4q-2-1.8-5.2-1.8-4.9 0-7 4.1-2.1 4-2.1 12.1M365.291 139.5q2.4 0 4.4-.5 2.1-.5 4.3-1.2v11.1q-2.5 1-5.9 1.7-3.3.8-7.8.8-4.8 0-8.6-1.6-3.7-1.6-5.8-5.5-2.1-4-2.1-11V107h-6.5v-6.3l7.8-5 4.4-11.5h10.3v11.6h13.6V107h-13.6v26.3q0 3.1 1.5 4.7 1.5 1.5 4 1.5M432.583 95.8v54.6h-12.1l-2.1-7h-.9q-1.6 2.8-4.1 4.6-2.4 1.7-5.4 2.5-3 .9-6.2.9-5.3 0-9.4-2.1t-6.5-6.5q-2.3-4.4-2.3-11.4V95.8h16v31.9q0 5.8 1.7 8.8t5.5 3q3.9 0 6-2.1t2.9-6.1q.9-4 .9-9.8V95.8zM483.385 134.2q0 5.5-2.4 9.4-2.3 3.8-7.1 5.8t-12.4 2q-5.5 0-9.6-.8-4.1-.7-8.3-2.4v-12.3a67 67 0 0 0 9.5 3.3q4.9 1.3 8.2 1.3 3.6 0 5.1-1.3 1.6-1.3 1.6-3.4 0-1.4-.8-2.5t-3.2-2.5-7.1-3.6q-4.6-2.2-7.6-4.3-2.9-2.2-4.4-5.2-1.4-3.1-1.4-7.7 0-7.6 5.7-11.4 5.8-3.8 15.2-3.8 5 0 9.4 1t9.1 3.3l-4.5 10.7a64 64 0 0 0-5.1-2.1 38 38 0 0 0-4.8-1.4q-2.2-.5-4.2-.5-2.6 0-4 .9-1.3.9-1.3 2.7 0 1.3.8 2.4.8 1 3.1 2.3 2.3 1.2 6.7 3.1 4.5 1.9 7.5 4 3.1 2 4.7 5.1 1.6 3 1.6 7.9"/><defs><linearGradient id="a" x1="96.688" x2="96.688" y1="23.047" y2="128.516" gradientUnits="userSpaceOnUse"><stop stop-color="#fff"/><stop offset="1" stop-color="#dbe4ff"/></linearGradient><linearGradient id="b" x1="53.719" x2="92.781" y1="46.484" y2="132.422" gradientUnits="userSpaceOnUse"><stop stop-color="#c7d2fe"/><stop offset="1" stop-color="#818cf8"/></linearGradient><linearGradient id="c" x1="139.656" x2="100.594" y1="46.484" y2="132.422" gradientUnits="userSpaceOnUse"><stop stop-color="#c7d2fe"/><stop offset="1" stop-color="#818cf8"/></linearGradient><linearGradient id="d" x1="22.469" x2="81.063" y1="81.641" y2="151.953" gradientUnits="userSpaceOnUse"><stop stop-color="#a5b4fc"/><stop offset="1" stop-color="#4f46e5"/></linearGradient><linearGradient id="e" x1="170.906" x2="112.313" y1="81.641" y2="151.953" gradientUnits="userSpaceOnUse"><stop stop-color="#a5b4fc"/><stop offset="1" stop-color="#4f46e5"/></linearGradient><linearGradient id="f" x1="53.719" x2="139.656" y1="148.047" y2="175.391" gradientUnits="userSpaceOnUse"><stop stop-color="#818cf8"/><stop offset="1" stop-color="#6366f1"/></linearGradient></defs></svg>