<svg xmlns="http://www.w3.org/2000/svg" viewBox="0 0 256 256" fill="none">
  <defs>
    <linearGradient id="prosefly-left-upper" x1="35" y1="40" x2="104" y2="136" gradientUnits="userSpaceOnUse">
      <stop offset="0" stop-color="#5BAE76"/>
      <stop offset=".65" stop-color="#468E60"/>
      <stop offset="1" stop-color="#3E7E55"/>
    </linearGradient>
    <linearGradient id="prosefly-main" x1="184" y1="54" x2="98" y2="218" gradientUnits="userSpaceOnUse">
      <stop offset="0" stop-color="#AFE8AE"/>
      <stop offset=".30" stop-color="#8BD79A"/>
      <stop offset=".58" stop-color="#68BC81"/>
      <stop offset=".82" stop-color="#4A9B67"/>
      <stop offset="1" stop-color="#3B875B"/>
    </linearGradient>
    <linearGradient id="prosefly-left-lower" x1="42" y1="94" x2="96" y2="178" gradientUnits="userSpaceOnUse">
      <stop offset="0" stop-color="#3D895A"/>
      <stop offset="1" stop-color="#2D6D49"/>
    </linearGradient>
    <linearGradient id="prosefly-right-lower" x1="143" y1="108" x2="216" y2="188" gradientUnits="userSpaceOnUse">
      <stop offset="0" stop-color="#6EB37B"/>
      <stop offset=".55" stop-color="#4B8D5B"/>
      <stop offset="1" stop-color="#366D4A"/>
    </linearGradient>
  </defs>
  <path
    d="M 37.06 50.07 C 35.62 50.78 35.04 53.75 35.25 57.13 C 35.47 60.50 36.67 65.88 38.35 70.31 C 40.02 74.75 42.51 79.59 45.30 83.75 C 48.10 87.90 51.55 91.72 55.12 95.24 C 58.69 98.75 62.75 101.80 66.72 104.84 C 70.70 107.88 74.99 110.60 78.95 113.47 C 82.92 116.34 86.99 119.54 90.51 122.06 C 94.04 124.58 97.34 127.54 100.09 128.58 C 102.85 129.61 105.28 129.75 107.03 128.27 C 108.79 126.78 110.26 123.20 110.63 119.68 C 111.01 116.16 110.67 111.17 109.28 107.13 C 107.89 103.10 105.27 98.97 102.28 95.49 C 99.28 92.01 95.23 89.08 91.32 86.24 C 87.41 83.39 83.00 81.04 78.82 78.44 C 74.63 75.84 70.31 73.41 66.22 70.61 C 62.12 67.81 57.97 64.58 54.25 61.63 C 50.53 58.67 46.77 54.81 43.91 52.89 C 41.04 50.96 38.50 49.36 37.06 50.07 Z"
    fill="url(#prosefly-left-upper)"
  />
  <path
    d="M 225.74 53.32 C 224.05 52.50 220.79 54.53 217.08 56.79 C 213.37 59.05 208.39 63.54 203.46 66.86 C 198.54 70.19 192.95 73.64 187.51 76.73 C 182.07 79.81 176.32 82.36 170.83 85.37 C 165.35 88.37 159.73 91.24 154.58 94.77 C 149.43 98.30 144.39 102.14 139.94 106.55 C 135.50 110.95 131.44 115.92 127.90 121.19 C 124.37 126.46 121.46 132.29 118.72 138.16 C 115.97 144.03 113.89 150.34 111.45 156.41 C 109.01 162.48 106.91 168.79 104.07 174.59 C 101.23 180.39 98.09 186.16 94.43 191.22 C 90.77 196.28 86.02 201.00 82.11 204.93 C 78.21 208.87 73.24 212.27 71.01 214.84 C 68.77 217.40 67.48 219.34 68.70 220.33 C 69.91 221.32 74.05 221.55 78.29 220.77 C 82.53 220.00 88.98 218.28 94.12 215.67 C 99.26 213.06 104.69 209.36 109.16 205.13 C 113.62 200.91 117.40 195.62 120.91 190.30 C 124.43 184.97 127.15 178.91 130.27 173.19 C 133.38 167.47 136.13 161.44 139.59 155.96 C 143.05 150.49 146.78 145.12 151.02 140.34 C 155.26 135.56 160.09 131.28 165.03 127.29 C 169.97 123.29 175.44 119.98 180.67 116.37 C 185.89 112.77 191.41 109.55 196.41 105.65 C 201.41 101.75 206.45 97.67 210.65 92.96 C 214.84 88.26 218.83 82.62 221.59 77.41 C 224.36 72.19 226.54 65.69 227.23 61.68 C 227.92 57.66 227.44 54.13 225.74 53.32 Z"
    fill="url(#prosefly-main)"
  />
  <path
    d="M 44.82 102.61 C 43.61 103.31 43.27 105.92 43.60 108.87 C 43.92 111.82 45.18 116.47 46.78 120.31 C 48.39 124.14 50.67 128.31 53.21 131.89 C 55.75 135.48 58.86 138.71 62.00 141.82 C 65.13 144.93 68.72 147.70 72.01 150.56 C 75.30 153.41 78.76 156.46 81.71 158.95 C 84.67 161.44 87.47 164.34 89.73 165.50 C 92.00 166.67 93.96 167.11 95.30 165.93 C 96.65 164.76 97.65 161.66 97.82 158.47 C 98.00 155.29 97.57 150.63 96.36 146.83 C 95.15 143.04 93.04 139.04 90.56 135.70 C 88.08 132.35 84.77 129.50 81.49 126.77 C 78.22 124.04 74.46 121.81 70.92 119.32 C 67.38 116.82 63.60 114.24 60.26 111.81 C 56.92 109.37 53.46 106.25 50.89 104.72 C 48.31 103.19 46.04 101.92 44.82 102.61 Z"
    fill="url(#prosefly-left-lower)"
  />
  <path
    d="M 217.06 104.12 C 215.67 103.50 213.00 105.04 210.03 106.79 C 207.06 108.54 203.06 111.97 199.22 114.62 C 195.38 117.26 191.06 120.01 186.98 122.64 C 182.89 125.28 178.63 127.63 174.69 130.44 C 170.75 133.26 166.82 136.16 163.35 139.53 C 159.88 142.90 156.62 146.65 153.87 150.68 C 151.12 154.71 148.68 159.46 146.86 163.73 C 145.03 168.00 143.49 173.16 142.93 176.31 C 142.36 179.45 142.39 182.13 143.46 182.62 C 144.53 183.11 146.70 181.29 149.33 179.23 C 151.96 177.17 155.61 173.25 159.23 170.27 C 162.84 167.29 166.99 164.15 171.02 161.35 C 175.05 158.56 179.32 156.20 183.39 153.51 C 187.47 150.82 191.68 148.28 195.48 145.20 C 199.28 142.12 203.05 138.80 206.18 135.06 C 209.31 131.31 212.23 126.83 214.27 122.74 C 216.31 118.65 217.93 113.63 218.40 110.53 C 218.86 107.42 218.46 104.74 217.06 104.12 Z"
    fill="url(#prosefly-right-lower)"
  />
</svg>
